{
    "asset": {
        "version": "2.0",
        "generator": "Open Asset Import Library (assimp v5.2.cf7d3637)"
    },
    "extensionsUsed": [
        "KHR_materials_volume",
        "FB_ngon_encoding"
    ],
    "accessors": [
        {
            "bufferView": 0,
            "byteOffset": 0,
            "componentType": 5126,
            "count": 372,
            "type": "VEC3",
            "max": [
                1.0,
                1.0,
                1.0
            ],
            "min": [
                -1.0,
                -1.0,
                -1.0
            ]
        },
        {
            "bufferView": 1,
            "byteOffset": 0,
            "componentType": 5126,
            "count": 372,
            "type": "VEC3",
            "max": [
                0.9951865673065186,
                1.0,
                0.9951865673065186
            ],
            "min": [
                -0.9951865673065186,
                -1.0,
                -0.9951865673065186
            ]
        },
        {
            "bufferView": 2,
            "byteOffset": 0,
            "componentType": 5126,
            "count": 372,
            "type": "VEC2",
            "max": [
                1.0,
                0.9900000095367432
            ],
            "min": [
                0.0,
                0.0
            ]
        },
        {
            "bufferView": 3,
            "byteOffset": 0,
            "componentType": 5125,
            "count": 372,
            "type": "SCALAR",
            "max": [
                371
            ],
            "min": [
                0
            ]
        },
        {
            "bufferView": 4,
            "byteOffset": 0,
            "componentType": 5126,
            "count": 372,
            "type": "VEC3",
            "max": [
                1.0,
                1.0,
                1.0
            ],
            "min": [
                -1.0,
                -1.0,
                -1.0
            ]
        },
        {
            "bufferView": 5,
            "byteOffset": 0,
            "componentType": 5126,
            "count": 372,
            "type": "VEC3",
            "max": [
                0.9921784996986389,
                1.0,
                0.9921784996986389
            ],
            "min": [
                -0.9921784996986389,
                -1.0,
                -0.9921784996986389
            ]
        },
        {
            "bufferView": 6,
            "byteOffset": 0,
            "componentType": 5126,
            "count": 372,
            "type": "VEC2",
            "max": [
                1.0,
                0.9900000095367432
            ],
            "min": [
                0.0,
                0.0
            ]
        },
        {
            "bufferView": 7,
            "byteOffset": 0,
            "componentType": 5125,
            "count": 372,
            "type": "SCALAR",
            "max": [
                371
            ],
            "min": [
                0
            ]
        },
        {
            "bufferView": 8,
            "byteOffset": 0,
            "componentType": 5126,
            "count": 372,
            "type": "VEC3",
            "max": [
                1.0416417121887208,
                1.0,
                1.0416417121887208
            ],
            "min": [
                -1.0416417121887208,
                -0.9999999403953552,
                -1.0416417121887208
            ]
        },
        {
            "bufferView": 9,
            "byteOffset": 0,
            "componentType": 5126,
            "count": 372,
            "type": "VEC3",
            "max": [
                0.9915274381637573,
                1.0,
                0.9915273189544678
            ],
            "min": [
                -0.9915274381637573,
                -1.0,
                -0.9915273189544678
            ]
        },
        {
            "bufferView": 10,
            "byteOffset": 0,
            "componentType": 5126,
            "count": 372,
            "type": "VEC2",
            "max": [
                1.0,
                0.9900000095367432
            ],
            "min": [
                0.0,
                0.0
            ]
        },
        {
            "bufferView": 11,
            "byteOffset": 0,
            "componentType": 5125,
            "count": 372,
            "type": "SCALAR",
            "max": [
                371
            ],
            "min": [
                0
            ]
        },
        {
            "bufferView": 12,
            "byteOffset": 0,
            "componentType": 5126,
            "count": 372,
            "type": "VEC3",
            "max": [
                1.0,
                1.0,
                1.0
            ],
            "min": [
                -1.0,
                -1.0,
                -1.0
            ]
        },
        {
            "bufferView": 13,
            "byteOffset": 0,
            "componentType": 5126,
            "count": 372,
            "type": "VEC3",
            "max": [
                0.9951865673065186,
                1.0,
                0.9951865673065186
            ],
            "min": [
                -0.9951865673065186,
                -1.0,
                -0.9951865673065186
            ]
        },
        {
            "bufferView": 14,
            "byteOffset": 0,
            "componentType": 5126,
            "count": 372,
            "type": "VEC2",
            "max": [
                1.0,
                0.9900000095367432
            ],
            "min": [
                0.0,
                0.0
            ]
        },
        {
            "bufferView": 15,
            "byteOffset": 0,
            "componentType": 5125,
            "count": 372,
            "type": "SCALAR",
            "max": [
                371
            ],
            "min": [
                0
            ]
        },
        {
            "bufferView": 16,
            "byteOffset": 0,
            "componentType": 5126,
            "count": 3456,
            "type": "VEC3",
            "max": [
                1.25,
                0.25,
                1.25
            ],
            "min": [
                -1.25,
                -0.25,
                -1.25
            ]
        },
        {
            "bufferView": 17,
            "byteOffset": 0,
            "componentType": 5126,
            "count": 3456,
            "type": "VEC3",
            "max": [
                0.963995635509491,
                0.9657914638519287,
                0.963995635509491
            ],
            "min": [
                -0.963995635509491,
                -0.9657914638519287,
                -0.963995635509491
            ]
        },
        {
            "bufferView": 18,
            "byteOffset": 0,
            "componentType": 5126,
            "count": 3456,
            "type": "VEC2",
            "max": [
                1.0,
                1.0
            ],
            "min": [
                8.881784197001253e-16,
                0.0
            ]
        },
        {
            "bufferView": 19,
            "byteOffset": 0,
            "componentType": 5125,
            "count": 3456,
            "type": "SCALAR",
            "max": [
                3455
            ],
            "min": [
                0
            ]
        },
        {
            "bufferView": 20,
            "byteOffset": 0,
            "componentType": 5126,
            "count": 372,
            "type": "VEC3",
            "max": [
                1.0,
                1.0,
                1.0
            ],
            "min": [
                -1.0,
                -1.0,
                -1.0
            ]
        },
        {
            "bufferView": 21,
            "byteOffset": 0,
            "componentType": 5126,
            "count": 372,
            "type": "VEC3",
            "max": [
                0.9951865673065186,
                1.0,
                0.9951865673065186
            ],
            "min": [
                -0.9951865673065186,
                -1.0,
                -0.9951865673065186
            ]
        },
        {
            "bufferView": 22,
            "byteOffset": 0,
            "componentType": 5126,
            "count": 372,
            "type": "VEC2",
            "max": [
                1.0,
                0.9900000095367432
            ],
            "min": [
                0.0,
                0.0
            ]
        },
        {
            "bufferView": 23,
            "byteOffset": 0,
            "componentType": 5125,
            "count": 372,
            "type": "SCALAR",
            "max": [
                371
            ],
            "min": [
                0
            ]
        },
        {
            "bufferView": 24,
            "byteOffset": 0,
            "componentType": 5126,
            "count": 372,
            "type": "VEC3",
            "max": [
                1.0,
                1.0,
                1.0
            ],
            "min": [
                -1.0,
                -1.0,
                -1.0
            ]
        },
        {
            "bufferView": 25,
            "byteOffset": 0,
            "componentType": 5126,
            "count": 372,
            "type": "VEC3",
            "max": [
                0.9951865673065186,
                1.0,
                0.9951865673065186
            ],
            "min": [
                -0.9951865673065186,
                -1.0,
                -0.9951865673065186
            ]
        },
        {
            "bufferView": 26,
            "byteOffset": 0,
            "componentType": 5126,
            "count": 372,
            "type": "VEC2",
            "max": [
                1.0,
                0.9900000095367432
            ],
            "min": [
                0.0,
                0.0
            ]
        },
        {
            "bufferView": 27,
            "byteOffset": 0,
            "componentType": 5125,
            "count": 372,
            "type": "SCALAR",
            "max": [
                371
            ],
            "min": [
                0
            ]
        }
    ],
    "buffers": [
        {
            "byteLength": 204768,
            "uri": "result.bin"
        }
    ],
    "bufferViews": [
        {
            "buffer": 0,
            "byteOffset": 0,
            "byteLength": 4464,
            "target": 34962
        },
        {
            "buffer": 0,
            "byteOffset": 4464,
            "byteLength": 4464,
            "target": 34962
        },
        {
            "buffer": 0,
            "byteOffset": 8928,
            "byteLength": 2976,
            "target": 34962
        },
        {
            "buffer": 0,
            "byteOffset": 11904,
            "byteLength": 1488,
            "target": 34963
        },
        {
            "buffer": 0,
            "byteOffset": 13392,
            "byteLength": 4464,
            "target": 34962
        },
        {
            "buffer": 0,
            "byteOffset": 17856,
            "byteLength": 4464,
            "target": 34962
        },
        {
            "buffer": 0,
            "byteOffset": 22320,
            "byteLength": 2976,
            "target": 34962
        },
        {
            "buffer": 0,
            "byteOffset": 25296,
            "byteLength": 1488,
            "target": 34963
        },
        {
            "buffer": 0,
            "byteOffset": 26784,
            "byteLength": 4464,
            "target": 34962
        },
        {
            "buffer": 0,
            "byteOffset": 31248,
            "byteLength": 4464,
            "target": 34962
        },
        {
            "buffer": 0,
            "byteOffset": 35712,
            "byteLength": 2976,
            "target": 34962
        },
        {
            "buffer": 0,
            "byteOffset": 38688,
            "byteLength": 1488,
            "target": 34963
        },
        {
            "buffer": 0,
            "byteOffset": 40176,
            "byteLength": 4464,
            "target": 34962
        },
        {
            "buffer": 0,
            "byteOffset": 44640,
            "byteLength": 4464,
            "target": 34962
        },
        {
            "buffer": 0,
            "byteOffset": 49104,
            "byteLength": 2976,
            "target": 34962
        },
        {
            "buffer": 0,
            "byteOffset": 52080,
            "byteLength": 1488,
            "target": 34963
        },
        {
            "buffer": 0,
            "byteOffset": 53568,
            "byteLength": 41472,
            "target": 34962
        },
        {
            "buffer": 0,
            "byteOffset": 95040,
            "byteLength": 41472,
            "target": 34962
        },
        {
            "buffer": 0,
            "byteOffset": 136512,
            "byteLength": 27648,
            "target": 34962
        },
        {
            "buffer": 0,
            "byteOffset": 164160,
            "byteLength": 13824,
            "target": 34963
        },
        {
            "buffer": 0,
            "byteOffset": 177984,
            "byteLength": 4464,
            "target": 34962
        },
        {
            "buffer": 0,
            "byteOffset": 182448,
            "byteLength": 4464,
            "target": 34962
        },
        {
            "buffer": 0,
            "byteOffset": 186912,
            "byteLength": 2976,
            "target": 34962
        },
        {
            "buffer": 0,
            "byteOffset": 189888,
            "byteLength": 1488,
            "target": 34963
        },
        {
            "buffer": 0,
            "byteOffset": 191376,
            "byteLength": 4464,
            "target": 34962
        },
        {
            "buffer": 0,
            "byteOffset": 195840,
            "byteLength": 4464,
            "target": 34962
        },
        {
            "buffer": 0,
            "byteOffset": 200304,
            "byteLength": 2976,
            "target": 34962
        },
        {
            "buffer": 0,
            "byteOffset": 203280,
            "byteLength": 1488,
            "target": 34963
        }
    ],
    "materials": [
        {
            "name": "material"
        }
    ],
    "meshes": [
        {
            "name": "Cylinder.001",
            "primitives": [
                {
                    "mode": 4,
                    "material": 0,
                    "indices": 3,
                    "attributes": {
                        "POSITION": 0,
                        "NORMAL": 1,
                        "TEXCOORD_0": 2
                    }
                }
            ]
        },
        {
            "name": "Cylinder.002",
            "primitives": [
                {
                    "mode": 4,
                    "material": 0,
                    "indices": 7,
                    "attributes": {
                        "POSITION": 4,
                        "NORMAL": 5,
                        "TEXCOORD_0": 6
                    }
                }
            ]
        },
        {
            "name": "Cylinder.003",
            "primitives": [
                {
                    "mode": 4,
                    "material": 0,
                    "indices": 11,
                    "attributes": {
                        "POSITION": 8,
                        "NORMAL": 9,
                        "TEXCOORD_0": 10
                    }
                }
            ]
        },
        {
            "name": "Cylinder.006",
            "primitives": [
                {
                    "mode": 4,
                    "material": 0,
                    "indices": 15,
                    "attributes": {
                        "POSITION": 12,
                        "NORMAL": 13,
                        "TEXCOORD_0": 14
                    }
                }
            ]
        },
        {
            "name": "Torus.002",
            "primitives": [
                {
                    "mode": 4,
                    "material": 0,
                    "indices": 19,
                    "attributes": {
                        "POSITION": 16,
                        "NORMAL": 17,
                        "TEXCOORD_0": 18
                    }
                }
            ]
        },
        {
            "name": "Cylinder.008",
            "primitives": [
                {
                    "mode": 4,
                    "material": 0,
                    "indices": 23,
                    "attributes": {
                        "POSITION": 20,
                        "NORMAL": 21,
                        "TEXCOORD_0": 22
                    }
                }
            ]
        },
        {
            "name": "Cylinder.009",
            "primitives": [
                {
                    "mode": 4,
                    "material": 0,
                    "indices": 27,
                    "attributes": {
                        "POSITION": 24,
                        "NORMAL": 25,
                        "TEXCOORD_0": 26
                    }
                }
            ]
        }
    ],
    "nodes": [
        {
            "name": "ROOT",
            "children": [
                1,
                2,
                3,
                4,
                5,
                6,
                7
            ]
        },
        {
            "name": "Cylinder.001",
            "matrix": [
                1.0242739915847779,
                0.0,
                0.0,
                0.0,
                0.0,
                -0.5028592348098755,
                0.0,
                0.0,
                0.0,
                0.0,
                1.0242739915847779,
                0.0,
                0.0,
                4.67863655090332,
                0.0,
                1.0
            ],
            "mesh": 0
        },
        {
            "name": "Cylinder",
            "matrix": [
                1.1025850772857667,
                0.0,
                0.0,
                0.0,
                0.0,
                2.809720516204834,
                0.0,
                0.0,
                0.0,
                0.0,
                1.1025850772857667,
                0.0,
                0.0,
                1.4378174543380738,
                0.0,
                1.0
            ],
            "mesh": 1
        },
        {
            "name": "Cylinder.002",
            "matrix": [
                1.2524081468582154,
                0.0,
                0.0,
                0.0,
                0.0,
                1.2524081468582154,
                0.0,
                0.0,
                0.0,
                0.0,
                1.2524081468582154,
                0.0,
                0.0,
                -2.2179040908813478,
                0.0,
                1.0
            ],
            "mesh": 2
        },
        {
            "name": "Cylinder.003",
            "matrix": [
                0.3662808835506439,
                0.0,
                0.0,
                0.0,
                0.0,
                0.3662808835506439,
                0.0,
                0.0,
                0.0,
                0.0,
                0.3662808835506439,
                0.0,
                0.0,
                5.646600246429443,
                0.0,
                1.0
            ],
            "mesh": 3
        },
        {
            "name": "Torus.002",
            "matrix": [
                0.37213024497032168,
                0.0,
                0.0,
                0.0,
                0.0,
                -2.0286967754364015,
                0.0,
                0.0,
                0.0,
                0.0,
                0.37213024497032168,
                0.0,
                0.0,
                5.504382610321045,
                0.0,
                1.0
            ],
            "mesh": 4
        },
        {
            "name": "Cylinder.004",
            "matrix": [
                0.580233097076416,
                0.0,
                0.0,
                0.0,
                0.0,
                -0.06165265291929245,
                0.0,
                0.0,
                0.0,
                0.0,
                0.580233097076416,
                0.0,
                0.0,
                5.9906744956970219,
                0.0,
                1.0
            ],
            "mesh": 5
        },
        {
            "name": "Cylinder.005",
            "matrix": [
                0.03563811630010605,
                0.0,
                0.0,
                0.0,
                0.0,
                0.3546866774559021,
                0.0,
                0.0,
                0.0,
                0.0,
                0.03563811630010605,
                0.0,
                0.0,
                6.272214412689209,
                0.0,
                1.0
            ],
            "mesh": 6
        }
    ],
    "scenes": [
        {
            "nodes": [
                0
            ]
        }
    ],
    "scene": 0
}